<?xml version="1.0" standalone="no"?>
<!DOCTYPE svg PUBLIC "-//W3C//DTD SVG 20010904//EN"
 "http://www.w3.org/TR/2001/REC-SVG-20010904/DTD/svg10.dtd">
<svg version="1.0" xmlns="http://www.w3.org/2000/svg"
 width="592.000000pt" height="592.000000pt" viewBox="0 0 592.000000 592.000000"
 preserveAspectRatio="xMidYMid meet">
<metadata>
Created by potrace 1.14, written by Peter Selinger 2001-2017
</metadata>
<g transform="translate(0.000000,592.000000) scale(0.100000,-0.100000)"
fill="#000000" stroke="none">
<path d="M2460 5669 c-341 -68 -575 -254 -718 -569 -23 -52 -47 -104 -52 -115
-5 -11 -93 -218 -196 -460 -103 -242 -194 -456 -202 -475 -9 -19 -16 -37 -17
-40 -1 -3 -8 -21 -17 -40 -8 -19 -28 -64 -43 -100 -15 -36 -35 -83 -45 -105
-35 -81 -145 -340 -146 -345 0 -3 -12 -31 -27 -64 -15 -32 -27 -60 -27 -62 0
-2 -11 -27 -24 -56 -13 -29 -43 -98 -66 -153 -23 -55 -51 -119 -61 -142 -10
-23 -19 -49 -19 -57 0 -9 -4 -16 -10 -16 -5 0 -10 -5 -10 -11 0 -9 -14 -43
-76 -184 -9 -22 -18 -42 -18 -45 -2 -7 -125 -298 -144 -340 -9 -19 -15 -38
-14 -42 1 -5 -3 -8 -8 -8 -6 0 -10 -7 -10 -15 0 -8 -4 -23 -10 -33 -5 -9 -21
-46 -36 -82 -15 -36 -34 -81 -42 -100 -9 -19 -16 -38 -16 -42 -1 -3 -4 -10 -9
-14 -4 -4 -7 -14 -7 -22 0 -9 -7 -23 -15 -32 -8 -9 -16 -25 -18 -36 -2 -10
-11 -35 -20 -54 -79 -179 -292 -687 -310 -739 -32 -96 -31 -267 2 -371 66
-207 220 -362 429 -432 l67 -23 1255 0 c690 0 1271 4 1290 8 58 13 72 18 147
54 76 36 206 147 233 199 8 16 22 37 30 47 8 10 15 21 16 25 0 4 10 29 22 55
12 27 25 63 28 80 3 18 8 43 11 57 11 60 6 178 -11 255 -11 51 -59 152 -101
211 -88 123 -226 213 -386 250 -13 3 -128 7 -255 9 -127 1 -251 6 -275 10
-103 16 -220 65 -309 130 -51 38 -150 138 -150 153 0 5 -6 15 -14 21 -36 30
-97 179 -115 281 -9 53 -8 181 3 246 16 100 74 225 146 315 139 173 330 262
565 262 232 0 465 -136 590 -347 22 -37 48 -79 57 -94 10 -15 21 -34 25 -42 3
-8 19 -34 35 -57 15 -23 28 -44 28 -47 0 -8 65 -111 75 -118 5 -4 6 -8 2 -8
-4 0 3 -15 17 -33 15 -19 26 -37 26 -40 0 -6 29 -55 77 -132 7 -11 22 -36 33
-55 11 -19 30 -51 42 -70 12 -19 26 -44 32 -55 6 -11 28 -46 49 -78 20 -31 37
-59 37 -62 0 -2 28 -51 63 -107 35 -57 66 -111 70 -121 3 -9 11 -17 17 -17 5
0 10 -6 10 -13 0 -13 54 -107 123 -214 15 -24 27 -46 27 -49 0 -4 11 -22 26
-41 14 -18 21 -33 17 -33 -4 0 -3 -4 3 -8 6 -4 21 -25 33 -47 12 -22 52 -91
90 -152 38 -62 71 -117 73 -121 1 -5 34 -59 73 -121 69 -110 134 -187 204
-239 20 -15 38 -29 41 -32 14 -16 132 -70 181 -84 90 -26 99 -28 204 -32 97
-3 199 12 265 39 14 6 28 11 31 11 3 1 28 12 55 26 104 51 225 164 284 265 13
22 27 42 30 45 14 12 61 158 73 228 35 204 -6 363 -158 607 -14 22 -30 49 -35
60 -6 11 -16 29 -23 40 -7 11 -28 48 -47 83 -19 34 -38 62 -42 62 -5 0 -8 8
-8 19 0 10 -7 24 -15 31 -8 7 -15 19 -15 26 0 8 -4 14 -10 14 -5 0 -10 5 -10
10 0 6 -20 43 -44 83 -24 39 -54 92 -68 117 -14 25 -48 83 -75 130 -28 47
-187 319 -353 605 -167 286 -314 538 -327 560 -13 22 -26 48 -30 58 -3 9 -9
17 -14 17 -5 0 -9 5 -9 10 0 6 -11 27 -23 48 -13 20 -35 57 -49 82 -14 25 -57
99 -95 165 -39 66 -100 172 -136 235 -37 63 -71 122 -76 130 -6 8 -36 60 -68
115 -32 55 -62 108 -68 117 -59 100 -105 182 -105 189 0 5 -4 9 -10 9 -5 0
-10 6 -10 14 0 7 -7 19 -15 26 -8 7 -15 21 -15 31 0 11 -4 19 -8 19 -5 0 -17
18 -27 40 -10 22 -22 40 -27 40 -4 0 -8 4 -8 9 0 5 -23 49 -51 98 -28 48 -59
102 -69 118 -9 17 -32 55 -50 85 -31 52 -41 69 -91 158 -12 20 -30 51 -40 67
-11 17 -22 37 -26 45 -8 17 -7 15 -75 100 -50 61 -92 105 -135 140 -37 31
-112 80 -121 80 -6 0 -12 4 -14 8 -10 25 -287 120 -309 106 -5 -3 -9 -2 -9 3
0 11 -245 13 -300 2z"/>
</g>
</svg>
