<svg xmlns="http://www.w3.org/2000/svg" xmlns:xlink="http://www.w3.org/1999/xlink" viewBox="0 0 812.94 624.21"><defs><style>.cls-1{fill:none;}.cls-2{isolation:isolate;}.cls-3{}.cls-4{fill:#e6efee00;}.cls-5{fill:#2e351a;}.cls-6{fill:#4c9b2f;}.cls-7{fill:#367a1a;}.cls-8{fill:#b1eee6;}.cls-9{fill:#50d073;}.cls-10,.cls-11,.cls-12{fill:#ffa364;}.cls-11{mix-blend-mode:multiply;opacity:0.5;}.cls-12{mix-blend-mode:screen;opacity:0.4;}.cls-13{fill:#e28e54;}.cls-14{fill:#fff;}</style><clipPath id="clip-path" transform="translate(11.35)"><path class="cls-1" d="M25.82,257.92C18.09,188.36,30.18,112.61,85.4,47.23s124-50.86,205.11-27.61S457.38,57.4,540.2,29.79,784.46,65,771.23,239C760.65,378.39,723.28,561.6,563.45,582S420.63,535.45,277,582s-262,0-274.77-138S36,349.46,25.82,257.92Z"/></clipPath></defs><g class="cls-2"><g id="Layer_2" data-name="Layer 2"><g id="Layer_1-2" data-name="Layer 1"><g class="cls-3"><path class="cls-4" d="M25.82,257.92C18.09,188.36,30.18,112.61,85.4,47.23s124-50.86,205.11-27.61S457.38,57.4,540.2,29.79,784.46,65,771.23,239C760.65,378.39,723.28,561.6,563.45,582S420.63,535.45,277,582s-262,0-274.77-138S36,349.46,25.82,257.92Z" transform="translate(11.35)"/><path class="cls-5" d="M237.77,609.3a.67.67,0,0,1-.06.48.66.66,0,0,1-.89.24,220.58,220.58,0,0,1-35.4-26.87c-17.21-15.91-39.76-41.8-49.41-74.84-18.34-62.73-38.07-77.52-38.27-77.66a.65.65,0,1,1,.75-1c.82.59,20.3,15.19,38.76,78.35,5.28,18.08,18.08,45.63,49.05,74.25a218.06,218.06,0,0,0,35.16,26.69A.65.65,0,0,1,237.77,609.3Z" transform="translate(11.35)"/><path class="cls-6" d="M226.88,602.8s-16.75-14.47-5.46-30.9,8.35-37.56,8.35-37.56,9.24,30.23.95,40.45S226.88,602.8,226.88,602.8Z" transform="translate(11.35)"/><path class="cls-6" d="M207.16,587.42S188.06,567,201.87,546s14.16-44.07,5.2-51.28c0,0,26.37,26.25,9.57,52S207.16,587.42,207.16,587.42Z" transform="translate(11.35)"/><path class="cls-6" d="M187.6,568.23s-12.53-26.29-3.25-50.35,3.79-49.57-1.89-52.95c0,0,24.07,21.82,13.09,50.52S187.6,568.23,187.6,568.23Z" transform="translate(11.35)"/><path class="cls-6" d="M167.05,540.65s-12.53-30.35-5.17-48.58-1.62-49-1.62-49,21.82,28,12.07,50.14S167.05,540.65,167.05,540.65Z" transform="translate(11.35)"/><path class="cls-6" d="M144.55,482.61s-5.07-11.14-1.35-29.5-12.13-36-12.13-36,26.77,14.8,20.15,35.1S144.55,482.61,144.55,482.61Z" transform="translate(11.35)"/><path class="cls-6" d="M126.7,447.17S115,427.67,118.77,414s-12-20.37-12-20.37S131,401.75,126.1,420,126.7,447.17,126.7,447.17Z" transform="translate(11.35)"/><path class="cls-7" d="M226.88,602.8s-51.82,53.82-106-9.2A77.9,77.9,0,0,0,165.53,609C192.37,609.55,192.66,598.78,226.88,602.8Z" transform="translate(11.35)"/><path class="cls-7" d="M78.15,541.06s20.64,43.46,65.3,50.75,43.47-3.78,75,4.83c0,0-33.56-21.49-61.43-19.06S97.15,566.21,78.15,541.06Z" transform="translate(11.35)"/><path class="cls-7" d="M199.27,580.24s-23.92-16.78-45.37-19.88-65.29-5.84-84.73-56.83c0,0,13.57,29.58,48.21,33.57S180.36,559.85,199.27,580.24Z" transform="translate(11.35)"/><path class="cls-7" d="M166.22,539.24A127.36,127.36,0,0,0,121,516.82c-26.89-7-55.89-20.81-53.58-45.57,0,0,10.79,16.79,36.22,22C141.19,501,162.84,527.62,166.22,539.24Z" transform="translate(11.35)"/><path class="cls-7" d="M67.92,434.7s-2.28,27,32.05,38,53.71,38.87,53.71,38.87-14.26-27.34-33.52-39S70,452.91,67.92,434.7Z" transform="translate(11.35)"/><path class="cls-7" d="M145.2,485.33s-22.59-33.78-40.65-40.43S71.73,436,66,413.19a48.94,48.94,0,0,0,32.4,18.45C120.31,434.63,145.2,485.33,145.2,485.33Z" transform="translate(11.35)"/><path class="cls-7" d="M60.07,395.6s9.29,25.56,27.24,26.87c17.11,1.25,28.91,8.56,31.82,13.21a.1.1,0,0,0,.19-.08c-.93-3.68-6.15-19.92-26.47-25.79C69.86,403.17,60.07,395.6,60.07,395.6Z" transform="translate(11.35)"/><path class="cls-5" d="M505.49,609.3a.63.63,0,0,0,.07.48.65.65,0,0,0,.88.24,219.56,219.56,0,0,0,35.4-26.87c17.22-15.91,39.76-41.8,49.42-74.84,18.33-62.73,38.07-77.52,38.27-77.66a.65.65,0,0,0-.76-1c-.82.59-20.29,15.19-38.75,78.35C584.74,526,571.94,553.58,541,582.2a217.55,217.55,0,0,1-35.16,26.69A.69.69,0,0,0,505.49,609.3Z" transform="translate(11.35)"/><path class="cls-6" d="M516.39,602.8s16.75-14.47,5.46-30.9-8.36-37.56-8.36-37.56-9.23,30.23-1,40.45S516.39,602.8,516.39,602.8Z" transform="translate(11.35)"/><path class="cls-6" d="M536.1,587.42S555.2,567,541.39,546s-14.16-44.07-5.19-51.28c0,0-26.38,26.25-9.57,52S536.1,587.42,536.1,587.42Z" transform="translate(11.35)"/><path class="cls-6" d="M555.67,568.23s12.52-26.29,3.25-50.35-3.8-49.57,1.88-52.95c0,0-24.06,21.82-13.09,50.52S555.67,568.23,555.67,568.23Z" transform="translate(11.35)"/><path class="cls-6" d="M576.22,540.65s12.53-30.35,5.16-48.58S583,443,583,443s-21.82,28-12.08,50.14S576.22,540.65,576.22,540.65Z" transform="translate(11.35)"/><path class="cls-6" d="M598.71,482.61s5.07-11.14,1.35-29.5,12.13-36,12.13-36-26.76,14.8-20.14,35.1S598.71,482.61,598.71,482.61Z" transform="translate(11.35)"/><path class="cls-6" d="M616.57,447.17s11.7-19.5,7.93-33.13,12-20.37,12-20.37-24.27,8.08-19.36,26.29S616.57,447.17,616.57,447.17Z" transform="translate(11.35)"/><path class="cls-7" d="M516.39,602.8s51.81,53.82,106-9.2A77.9,77.9,0,0,1,577.73,609C550.89,609.55,550.61,598.78,516.39,602.8Z" transform="translate(11.35)"/><path class="cls-7" d="M665.11,541.06s-20.63,43.46-65.3,50.75-43.46-3.78-75,4.83c0,0,33.57-21.49,61.44-19.06S646.12,566.21,665.11,541.06Z" transform="translate(11.35)"/><path class="cls-7" d="M544,580.24s23.92-16.78,45.38-19.88,65.28-5.84,84.73-56.83c0,0-13.57,29.58-48.22,33.57S562.91,559.85,544,580.24Z" transform="translate(11.35)"/><path class="cls-7" d="M577.05,539.24a127.25,127.25,0,0,1,45.2-22.42c26.89-7,55.89-20.81,53.58-45.57,0,0-10.79,16.79-36.22,22C602.08,501,580.42,527.62,577.05,539.24Z" transform="translate(11.35)"/><path class="cls-7" d="M675.35,434.7s2.27,27-32.06,38-53.71,38.87-53.71,38.87,14.27-27.34,33.52-39S673.23,452.91,675.35,434.7Z" transform="translate(11.35)"/><path class="cls-7" d="M598.06,485.33s22.59-33.78,40.66-40.43,32.81-8.87,38.53-31.71a48.94,48.94,0,0,1-32.41,18.45C623,434.63,598.06,485.33,598.06,485.33Z" transform="translate(11.35)"/><path class="cls-7" d="M683.19,395.6S673.9,421.16,656,422.47c-17.11,1.25-28.9,8.56-31.81,13.21a.11.11,0,0,1-.2-.08c.94-3.68,6.16-19.92,26.48-25.79C673.4,403.17,683.19,395.6,683.19,395.6Z" transform="translate(11.35)"/><path class="cls-8" d="M571.25,299.7A185.26,185.26,0,1,1,386,114.46a188.59,188.59,0,0,1,25.41,1.72C501.7,128.57,571.25,206,571.25,299.7Z" transform="translate(11.35)"/><path class="cls-9" d="M571.25,299.7A184.86,184.86,0,0,1,560,363.51a71.93,71.93,0,0,1-6.55-17.75c-2.95-17.08,7.57-30.76-1.37-47.07-5,2.77-7.17-.1-11.77.48-8.21,1-3.52,4.24-6.31,8.79s-24.16,3.53-26.73-.73c-3.24-5.36-2.62-20.53,0-25.55,3-5.69,4.43-5.83,4.83-12.24.19-3.06-1-7.72,1.16-10.25,3.1-3.58,10,.11,10.42-7.79.16-3.52-4.41-9.31-6.27-12.33-5.43-8.79-12.58-17-23-13.45-11,3.81-15.05,7.64-26.31,4.08-7.82-2.48-6.58.13-13.78,2.49-4.82,1.58-8.45-1.06-12.5-2.13-4.6-1.22-8.86-3.77-13,1-3.64,4.23-.16,10-4.54,13-5.61,3.86-10.68-2.77-11.08,7.47-.22,5.63,2.26,10.59.62,16.36-6.42,3.47-26.1-4-26.66-12.19-.35-5.29,10.83-13.55,14-17,5.14-5.55,6.4-7.21,4.84-13.93-1.92-8.28-4.68-9.63,2.87-16,5.92-5,8.71-9.22,16.52-10.15,4.47-.54,13.37.9,13.13-6.2-.1-3.23-4.79-5.49-5.61-8.82-.6-2.43.88-4.79.75-7.13-.77-13.68-12.62.82-13-8.12-.11-2.81,5-5.59,5.27-9,.26-3.14-2.57-6.65-4.06-9.46-4.4-8.3-11.55-15.91-11.64-25.95a28.27,28.27,0,0,1,1.11-7.78C501.7,128.57,571.25,206,571.25,299.7Z" transform="translate(11.35)"/><path class="cls-9" d="M336,158.47c1.14-2.49,6.24-4.89,9.12-5.52,3.72-.82,3.69-.26,7.23,1.68,2.95,1.62,6.82,3.34,10.3,2.94,2.27-.26,4.44-2.56,6.81-2.26,4.57.58,6,6.35,7.69,9.71,2.72,5.55,5.68,6.46,10.9,9.48,7.37,4.28,3.76,9-.1,15.05-3.34,5.21-4.69,8-5.54,14.11-.27,1.92.29,6-.55,7.55-1.72,3.24-5.16,2.36-8.95,3-7.66,1.22-9.81,5-12.51,12a47.08,47.08,0,0,0-2.62,9.66c-.46,2.95-.11,8.66-1.94,11.1-3.38,4.51-11.51,2.45-15.75.29-4-2-5.79-2.84-10.51-3-6-.19-8.16-3.26-12.4-7.44-7.23-7.15-16.86-14.6-6.77-24.2,1.5-1.43,5.37-4.28,7.46-4.61,2.67-.41,5.52,1.75,8.38,2.45,8.69,2.14,5.68-2.8,9.51-7.94,2.71-3.62,8-6.43,11.8-8.69,6.35-3.77,6.78-5.32,2.88-11.7-3-5-6.29-9.72-10.75-13.51-3.82-3.24-10.93-8.24-3.23-11.93Z" transform="translate(11.35)"/><path class="cls-9" d="M529.84,416.45a185.29,185.29,0,0,1-255,31.49c6.34-10.65,13.75-21.83,23.5-27.88s18.51,1.08,27.83,6.7c7.16,4.32,12.23,18.75,22.51,14,9.87-4.56,4.33-16,10-22.76,7.41-8.87,14.76-8.62,13.63-21.33-1-10.86-.82-25.17,12.7-21.85,3.89.95,9.85,3.09,12.12,6.89,1.87,3.14-.09,9.52,2.77,12.24,8.88,8.45,12.07-8.15,16.56-11.89,7.8-6.5,22.58-16.29,32.27-6.76,3.7,3.64,1.88,9.37,3.15,13.86,1.94,6.85,8.7,9.13,11.28,14.35,5.52,11.14-10.38,20.59.51,31.69,9.95,10.15,14.24-5.27,20.38-12.24C499.62,405.3,514.27,407.79,529.84,416.45Z" transform="translate(11.35)"/><path class="cls-9" d="M356.05,324.51c-2.87,7.19-13,4.15-18.64,4.24-7.37.1-14.64,5.11-20.64,9.28-10.19,7.1-12.21,12.5-25.91,14.15-12.38,1.49-28.13-5.69-36.72,4.49-9.58,11.35-14.52,29.56-27.82,37a185.36,185.36,0,0,1,9.93-203c2.39,3.25,4.71,6.54,7.17,9.59,3.7,4.59,10,9.09,11.31,15,3.28,14.27-12.76,27-8.32,41.91,2.8,9.36,10.68,16.84,16.2,24.75,4,5.71,3.67,6.6,9.14,5.8,4.06-.6,8.12-4.93,12.54-4.47,4.87.51,5.2,3.41,8.74,6.23,4.38,3.52,7.26,3.9,12.91,4.11,7.38.26,16.81-1.56,23.75,1.54,3.77,1.68,6.65,5.19,10.46,7.06,3,1.5,6.51,1.75,9.46,3.09C355,307.65,358.59,318.14,356.05,324.51Z" transform="translate(11.35)"/><path class="cls-10" d="M350.59,354.72c-.91,7.62-14.61,7.26-22.18,6-8.41-1.4-14.57,1.27-17.1-1s-30.11-12.32-43.71-13.44c0,0-23.39-18.08-35.16-19.9h0l.14.05c1.88.82,19.63,8.56,26.66,17.32a31.89,31.89,0,0,1,5.68,3.29c2.11,1.67,17.38,5.39,27.26,15.9,1.16,1.25,2.21,2.94,3.68,2.9,10.38-.37,20.94-2.22,25.72,5.77.15.25.3.51.44.79a0,0,0,0,1,0,0c5.06,10.06-33.76,13-41.73,7.32s-26.17-15.66-31.42-16-20.32-14.94-27.11-15.66h-.15c-.14,0-.22,0-.25.09s0,.26.24.48c2.19,2.55,18.7,12.92,21.59,17.62,3.37,5.47,6.87.07,27.33,14.81,0,0,19.2,3.1,22.93,10a5.57,5.57,0,0,1,.49,1.26,3,3,0,0,1,.09,1.1c-.57,6.63-22.84,6.12-28.14,3.53-5.57-2.74-16.29-8.31-27.21-11.15s-14.63-14.64-29.75-21.1h0l-.51-.22c-3.56-1.48-7.31-3-11.24-4.77l-.07,0a156,156,0,0,1-19-10,166.58,166.58,0,0,1-27.36-21.46c-23.33-22.27-25.85-29-44.76-43.92S16.45,223.62,5.11,202.6a158.07,158.07,0,0,1-10-23.08c-.64-1.88-1.27-3.81-1.85-5.78h0c-6.43-21.62-8.58-48.1,10.25-62.94,6.5-5.12,15.49-8.85,27.67-10.53,0,0,20.81,17.66,35.94,53.6,14.89,35.38,73.17,77.47,75,78.78h.06c.58-.42,22.23-16,46-10.77,24.09,5.32,32.78-10.37,40.91-7.29,7.56,2.87,29.18-8.08,37.57.07a9.22,9.22,0,0,1,1.66,2.18c6.73,12-23,19.89-27.74,20.17,0,0-7.56,9.25-17.66,9,0,0,17,5.74,25.37,15.83h0c.8.18,22.19,5.22,33.89,15.26,0,0,21.15,2.94,30.12,10.09s33.49,5.46,36.28,11.63a9,9,0,0,1,.52,1.51,6.93,6.93,0,0,1,.13,2.39c-.58,4.58-6.09,8.39-15.21,9.27-11.63,1.12-18.36.7-22.42,0s-25.5-10.09-32.51-9.25-36.32-11.57-37.63-10.59l0,0a5.15,5.15,0,0,0-2.15,4.68c.22,2.8,2.43,5.47,4.93,5.74,4.77.52,20.23,7.45,27.57,17.95a7,7,0,0,0,5.14,3c7.83.57,27.41,3.36,40.7,16.65,0,0,29,1.21,32.57,11.06a4.48,4.48,0,0,1,.22.71A8.24,8.24,0,0,1,350.59,354.72Z" transform="translate(11.35)"/><path class="cls-11" d="M222.9,246s17,5.74,25.37,15.83c-13.87-11-28.9-10.65-32.27-16.75a13.14,13.14,0,0,1-.9-11.31s-.46,8.31,5.25,9.74,17.8-4.87,16.43-9.7,2.1-9.74,2.1-9.74c-1.92,5.46,1.5,11.35,1.5,11.35,19.23-2.84,27.92-18.56,27.92-18.56,6.73,12-23,19.89-27.74,20.17C240.56,237,233,246.25,222.9,246Z" transform="translate(11.35)"/><path class="cls-11" d="M229.77,274.9s-37,14.71-35.51,61C194.26,335.85,200.14,297.6,229.77,274.9Z" transform="translate(11.35)"/><path class="cls-11" d="M212.75,250.94s-15.48,22.49-55.55,15.62C157.2,266.56,194.75,283.66,212.75,250.94Z" transform="translate(11.35)"/><path class="cls-11" d="M157.2,272.17s27-4.63,26.76,58.14C184,330.31,180.31,285.48,157.2,272.17Z" transform="translate(11.35)"/><path class="cls-11" d="M349.23,302.69c-.58,4.58-6.09,8.39-15.21,9.27-11.63,1.12-18.36.7-22.42,0s-25.5-10.09-32.51-9.25-36.32-11.57-37.63-10.59c9.67-9.49,34,8.1,34,4.22s5.25-9.59,5.25-9.59c-3.89,5.68-2.31,12.32-2.31,12.32s2.2-2.1,11.14,2.31,22.8,6.83,23.43,3a18.27,18.27,0,0,1,4.1-7.87c-.26.35-4.91,10,4.83,12.67C331.91,311.89,349.23,302.69,349.23,302.69Z" transform="translate(11.35)"/><path class="cls-11" d="M350.59,354.72c-.91,7.62-14.61,7.26-22.18,6-8.41-1.4-14.57,1.27-17.1-1s-30.11-12.32-43.71-13.44c0,0-23.39-18.08-35.16-19.9,10.78-4.42,33.19,18.4,33.69,12,.5-6.27,6.23-9,6.51-9.17-.26.43-7.49,12.59,4.28,15.76,12,3.22,34.74,12.54,34.53,8-.2-4.38,3.69-6.75,4-6.92-.32.43-5.55,7.65,7,10.63C333,359.18,346.19,356,350.59,354.72Z" transform="translate(11.35)"/><path class="cls-11" d="M280.32,379.77c-8-5.67-26.17-15.66-31.42-16s-20.32-14.94-27.11-15.66h-.14c7.66-2.81,26.53,14.47,28.09,11.15s8.42-7.2,8.61-7.25c-.37.31-9.19,9.51-1.68,11.87,7.67,2.42,24.34,16.3,26.69,11.46s9-4.94,9-4.94-11.66,5.77,3.26,8.3c11.81,2,22.46-3.78,26.39-6.27C327.11,382.51,288.29,385.43,280.32,379.77Z" transform="translate(11.35)"/><path class="cls-11" d="M294.06,393.48c-.57,6.63-22.84,6.12-28.14,3.53-5.57-2.74-16.29-8.31-27.21-11.15s-14.63-14.64-29.75-21.1c11.13.33,22.81,15.33,24.17,12.81s7.07-3.63,7.35-3.68c-.27.28-5.1,5.2-3.87,7.14s24.69,12.19,26.16,8.93,5.78-4.31,5.78-4.31-6.41,7.15,4.73,10.41C282.13,398.65,290.86,395.07,294.06,393.48Z" transform="translate(11.35)"/><path class="cls-11" d="M197.13,359.73l-19-10a166.58,166.58,0,0,1-27.36-21.46c-23.33-22.27-25.85-29-44.76-43.92S16.45,223.62,5.11,202.6a158.07,158.07,0,0,1-10-23.08c5.71,12.09,29.05,44.57,124.34,111.35,0,0-.84-11.49,1.89-17.86C121.33,273,118.53,312.65,197.13,359.73Z" transform="translate(11.35)"/><path class="cls-12" d="M266.64,214.65c-7.25-.57-18.53-.54-28.88,3.29-17,6.31-29,14.59-47.91,9.61-18.68-4.91-47,4.86-47.7,5.09.58-.42,22.23-16,46-10.77,24.09,5.32,32.78-10.37,40.91-7.29C236.63,217.45,258.25,206.5,266.64,214.65Z" transform="translate(11.35)"/><path class="cls-12" d="M349.1,300.3c-2.94-1.57-10.28-4.78-23.39-6.48-17.76-2.31-25-10.93-42.76-13.25s-9.48-8.74-34.66-18.76c.8.18,22.19,5.22,33.89,15.26,0,0,21.15,2.94,30.12,10.09s33.49,5.46,36.28,11.63A9,9,0,0,1,349.1,300.3Z" transform="translate(11.35)"/><path class="cls-12" d="M142.09,232.63C140.27,232,93.73,216,65.71,174.51,41.91,139.28,21.59,119,3.5,110.78c6.5-5.12,15.49-8.85,27.67-10.53,0,0,20.81,17.66,35.94,53.6C82,189.23,140.28,231.32,142.09,232.63Z" transform="translate(11.35)"/><path class="cls-12" d="M350.19,351.18c-4.95-2.23-16.21-6.36-33.83-7.56a75.9,75.9,0,0,0-42.66-16.39s-14.92-15.34-27.53-20c-7.07-2.58-7.69-7-6.89-10.43.22,2.8,2.43,5.47,4.93,5.74,4.77.52,20.23,7.45,27.57,17.95a7,7,0,0,0,5.14,3c7.83.57,27.41,3.36,40.7,16.65C317.62,340.12,346.65,341.33,350.19,351.18Z" transform="translate(11.35)"/><path class="cls-12" d="M321.6,371.63c-3.76-1.21-11.56-2.8-27.54-3.63,0,0-22.47-16-33.6-18.91s-16.73-15.74-28-22.69l.14.05c1.88.82,19.63,8.56,26.66,17.32a31.89,31.89,0,0,1,5.68,3.29c2.11,1.67,17.38,5.39,27.26,15.9,1.16,1.25,2.21,2.94,3.68,2.9C306.26,365.49,316.82,363.64,321.6,371.63Z" transform="translate(11.35)"/><path class="cls-12" d="M293.48,391.12c-5.4-2.2-15-5.73-23-6.72,0,0-16-9.15-24.69-11.25s-5.68-6.3-12.72-11c-6.78-4.57-11.48-8.36-11.4-13.42,2.19,2.55,18.7,12.92,21.59,17.62,3.37,5.47,6.87.07,27.33,14.81C270.55,381.13,289.75,384.23,293.48,391.12Z" transform="translate(11.35)"/><path class="cls-10" d="M776.78,423.93c-30.17-22.93-96.51-37.55-133.87-45.3-7.41-1.54-13.67-2.8-18.29-3.81-1-.23-2.08-.44-3.08-.64a124.6,124.6,0,0,0-21.43-2.43c-12.7-.33-22.85,1.2-39.17-.71-25.22-2.94-72.08-31.74-72.08-31.74-30.06,3.48-49.92-9.56-49.92-9.56-4.41,8-18.91,14.81-18.91,14.81-.19,12.58-9.44,20.55-12.37,20.12a1.07,1.07,0,0,1-.56-.25,2.41,2.41,0,0,1-.49-1.1c-.59-2.27-.66-7.38-.42-12.69.3-6.19,1.05-12.66,2-15.21,1.89-5.26,26.52-21.06,26.52-21.06l2,.43c4.67,1,10.33,2.26,13.46,3-8.24-2.15-23.25-8.5-23.25-8.5-6.41,16-33.63,24-33.63,24,.93,15.49-8.19,22.76-12.77,23.13a2.2,2.2,0,0,1-2.36-1h0c-.88-1.83-1.7-10.16-1-18.68.72-8.73,3.05-17.69,8.57-20.08,6.79-2.94,20-12.81,28.95-19.87,5.08-4,8.85-7.1,9.36-7.52-15.46,10.8-42.29,17.3-42.29,17.3C379.28,328,370.27,332.9,365.86,332a3.62,3.62,0,0,1-1.62-.74,2,2,0,0,1-.33-.32c-1.59-1.9-2.54-9.33-1.58-16.86.69-5.4.47-11.05,3.58-14.56,1.23-1.39,5.08-3.69,7.25-5.25,9.72-7,26.43-14,30.23-15.72l.75-.35a20.61,20.61,0,0,1-3,.62,26.64,26.64,0,0,1-3.88.27h-.1a46.31,46.31,0,0,1-15.76-3.22c-1.26,7.71-14.22,20.35-19,17.72a2.8,2.8,0,0,1-1-1c-.76-1.3-.95-3.59-.29-7.15a51.79,51.79,0,0,1,3.12-10.68,31.52,31.52,0,0,1,7.38-11.08c2.84-2.65,5.38-3.66,6.51-3.6,11.1.63,39-.28,50.66-2s37.83,7.71,51,11.07,15.7-.28,20.32,0,6,2.66,11.76,6.16,48.27,16.33,65.3,17c12.77.48,22.45,8.28,35.82,14.89l.85.42h0a89.25,89.25,0,0,0,14,5.49c.8.24,1.74.49,2.79.76,27.87,6.91,139.48,21.73,139.48,21.73l1.53,20.15.9,11.76,1.29,16.95Z" transform="translate(11.35)"/><path class="cls-11" d="M524.37,296.44s-6.83,1-14.6-5.69-9.78-.94-45.39-8.71-36.26-12.51-50.86-6.31a41.94,41.94,0,0,1-10.13,2.78c-.76.11-1.51.2-2.26.27-1.32.14-2.63.22-3.88.27h-.1a46.31,46.31,0,0,1-15.76-3.22c-1.37,8.38-16.55,22.57-20,16.68,5.18-2.13,17.14-8.5,19.67-22.56,0,0,1.16,4.73,8.2,6.2s16.5.31,21.76-1.89,10.19-6.55,18.73-4.31,44.63,13,57.66,14,16.6-2.53,20.91,1.47S514.81,295.69,524.37,296.44Z" transform="translate(11.35)"/><path class="cls-11" d="M521.64,312.4s-7,.41-12.46-6.73-12.06-2-19.48-2.79-32.36-3.5-45.26-8-16.11-8.83-24.79-1.68a48.65,48.65,0,0,1-5,3.53c5.25-4.14,9.09-7.3,9.39-7.54-15.44,10.81-42.32,17.32-42.32,17.32-2.74,24.62-14.17,27.45-17.44,24.7,5-3.09,17.69-12.74,11.55-28.2,0,0,27,.56,48.48-18.36,0,0,10.23,5.47,31.66,9.53s30.83,7.29,39.65,5,13.87.29,17.37,4.9A45,45,0,0,0,521.64,312.4Z" transform="translate(11.35)"/><path class="cls-11" d="M515.66,328.27s-6.1.63-12.4-4.73-29.64,2.63-49.61-3.15c-7.67-2.21-13.15-4.11-17-5.6,4.67,1,10.33,2.26,13.46,3-8.24-2.15-23.25-8.5-23.25-8.5-6.41,16-33.63,24-33.63,24,1.16,19.34-13.34,25.85-15.13,22.17h0c5-1.7,16.12-7.74,12.27-27.28,0,0,27.57,1,35.73-26.34,0,0,17.93,19.76,45,18.5s28.3-2.8,32.5.56S509.87,327.11,515.66,328.27Z" transform="translate(11.35)"/><path class="cls-11" d="M636.48,365c-1.76.19-22.84,2.47-36.37,6.79-12.7-.33-22.85,1.2-39.17-.71-25.22-2.94-72.08-31.74-72.08-31.74-30.06,3.48-49.92-9.56-49.92-9.56-4.41,8-18.91,14.81-18.91,14.81-.21,13.56-10.93,21.76-12.93,19.87a2.41,2.41,0,0,1-.49-1.1c4.88-2.41,14.72-9.13,9.25-22.43,0,0,19.48,2.34,21.16-17.84,0,0,13,10.79,29.24,12.89s24.17-2.52,24.17-2.52,40.46,33.63,73.24,34.05C595.43,367.88,634.1,365.13,636.48,365Z" transform="translate(11.35)"/><path class="cls-11" d="M776.78,423.93c-30.17-22.93-96.51-37.55-133.87-45.3-7.41-1.54-13.67-2.8-18.29-3.81-1-.23-2.08-.44-3.08-.64,16.71-1.47,54.08-2.88,88,8.84,27.22,9.41,50.2,5.78,64.24,1.36Z" transform="translate(11.35)"/><path class="cls-13" d="M407.66,364.66h0a1.07,1.07,0,0,1-.56-.25,2.41,2.41,0,0,1-.49-1.1c-.59-2.27-.66-7.38-.42-12.69C407.73,352.28,410.78,356.81,407.66,364.66Z" transform="translate(11.35)"/><path class="cls-13" d="M380.46,356.34a2.2,2.2,0,0,1-2.36-1h0c-.88-1.83-1.7-10.16-1-18.68C382.68,340.7,381.15,352.4,380.46,356.34Z" transform="translate(11.35)"/><path class="cls-13" d="M365.86,332a3.62,3.62,0,0,1-1.62-.74,2,2,0,0,1-.33-.32c-1.59-1.9-2.54-9.33-1.58-16.86C367.89,316.27,366.41,328.48,365.86,332Z" transform="translate(11.35)"/><path class="cls-13" d="M362.41,293.55a2.8,2.8,0,0,1-1-1c-.76-1.3-.95-3.59-.29-7.15a51.79,51.79,0,0,1,3.12-10.68C369.66,276.74,364.11,289.83,362.41,293.55Z" transform="translate(11.35)"/><path class="cls-12" d="M613,307.12C608,304.8,583.23,293.48,567,293.28c-18-.21-53-12.68-57.73-16.6s-9.11-5.89-16.11-3.51-16.67-1.4-29.15-6.44-31.51-8.27-40.07-5.46-34.74,3.35-42.17,1.68a20.45,20.45,0,0,0-10.23.65c2.84-2.65,5.38-3.66,6.51-3.6,11.1.63,39-.28,50.66-2s37.83,7.71,51,11.07,15.7-.28,20.32,0,6,2.66,11.76,6.16,48.27,16.33,65.3,17C589.9,292.71,599.58,300.51,613,307.12Z" transform="translate(11.35)"/><path class="cls-12" d="M771.58,355.67c-16.31-10.35-44.38-17.94-82.79-23.6-32-4.72-49.6-12.88-58.22-18.28,27.87,6.91,139.48,21.73,139.48,21.73Z" transform="translate(11.35)"/><path class="cls-14" d="M126.55,359.14H102.08a16,16,0,0,0,.09-1.7,17,17,0,0,0-17-17,16.22,16.22,0,0,0-2,.13,23.51,23.51,0,0,0-45.87,7.26c0,.75,0,1.49.1,2.23h0a16.16,16.16,0,0,0-2.62-.21,17,17,0,0,0-15.12,9.26H1.55a8.54,8.54,0,0,0,0,17.08h125a8.54,8.54,0,0,0,0-17.08Z" transform="translate(11.35)"/><path class="cls-14" d="M751.71,207.07H723a19.05,19.05,0,0,0,.1-2,19.93,19.93,0,0,0-19.93-19.93,20.14,20.14,0,0,0-2.34.14,27.63,27.63,0,0,0-53.9,8.55q0,1.32.12,2.61h0a18.5,18.5,0,0,0-3.09-.25,20,20,0,0,0-17.76,10.89H604.82a10,10,0,0,0,0,20.06H751.71a10,10,0,0,0,0-20.06Z" transform="translate(11.35)"/><path class="cls-14" d="M298.84,80.29h-20.7c0-.48.07-1,.07-1.45a14.36,14.36,0,0,0-14.35-14.35,15.81,15.81,0,0,0-1.69.1,19.89,19.89,0,0,0-38.81,6.15c0,.64,0,1.26.09,1.88h0a13.57,13.57,0,0,0-2.22-.17,14.33,14.33,0,0,0-12.79,7.84H193.07a7.22,7.22,0,0,0,0,14.44H298.84a7.22,7.22,0,1,0,0-14.44Z" transform="translate(11.35)"/><path class="cls-14" d="M794.37,444.71h-20.7c0-.47.07-1,.07-1.45a14.36,14.36,0,0,0-14.35-14.35,13.57,13.57,0,0,0-1.69.11,19.89,19.89,0,0,0-38.81,6.15c0,.63,0,1.26.09,1.88h0a13.57,13.57,0,0,0-2.22-.18A14.35,14.35,0,0,0,704,444.71H688.6a7.23,7.23,0,0,0,0,14.45H794.37a7.23,7.23,0,0,0,0-14.45Z" transform="translate(11.35)"/></g></g></g></g></svg>